<svg width="36" height="44" viewBox="0 0 36 44" fill="none" xmlns="http://www.w3.org/2000/svg">
<path d="M18 0.125C13.4433 0.130376 9.07467 1.94292 5.85256 5.16504C2.63044 8.38716 0.817894 12.7557 0.812518 17.3125C0.807061 21.0363 2.02343 24.659 4.27502 27.625C4.27502 27.625 4.74377 28.2422 4.82033 28.3312L18 43.875L31.186 28.3234C31.2547 28.2406 31.725 27.625 31.725 27.625L31.7266 27.6203C33.9771 24.6556 35.1929 21.0346 35.1875 17.3125C35.1821 12.7557 33.3696 8.38716 30.1475 5.16504C26.9254 1.94292 22.5568 0.130376 18 0.125ZM18 23.5625C16.7639 23.5625 15.5555 23.1959 14.5277 22.5092C13.4999 21.8224 12.6988 20.8463 12.2258 19.7043C11.7527 18.5622 11.629 17.3056 11.8701 16.0932C12.1113 14.8808 12.7065 13.7672 13.5806 12.8931C14.4547 12.019 15.5683 11.4237 16.7807 11.1826C17.9931 10.9414 19.2497 11.0652 20.3918 11.5383C21.5338 12.0113 22.5099 12.8124 23.1967 13.8402C23.8835 14.868 24.25 16.0764 24.25 17.3125C24.2479 18.9695 23.5888 20.558 22.4172 21.7296C21.2455 22.9013 19.657 23.5604 18 23.5625Z" fill="#3C93F0"/>
</svg>
