<svg width="32" height="32" viewBox="0 0 32 32" fill="none" xmlns="http://www.w3.org/2000/svg">
<path d="M26.3226 14.7084H28.9032C28.9032 8.08906 23.9058 3.0968 17.2774 3.0968V5.67745C22.5187 5.67745 26.3226 9.47487 26.3226 14.7084Z" fill="white"/>
<path d="M17.2903 10.8388C20.0039 10.8388 21.1613 11.9962 21.1613 14.7097H23.7419C23.7419 10.5484 21.4516 8.25812 17.2903 8.25812V10.8388ZM21.7058 17.862C21.191 17.3936 20.3961 17.4181 19.911 17.9175L16.8232 21.093C16.08 20.951 14.5858 20.4852 13.0477 18.951C11.5097 17.4117 11.0439 15.9136 10.9058 15.1755L14.0787 12.0865C14.5793 11.6013 14.6026 10.8078 14.1342 10.2917L9.36644 5.04909C8.89805 4.53167 8.10192 4.48264 7.5716 4.93683L4.7716 7.33812C4.54837 7.56264 4.41547 7.85941 4.39741 8.17554C4.37805 8.49812 4.00902 16.1394 9.93418 22.0672C15.1032 27.2349 21.5781 27.613 23.3613 27.613C23.6219 27.613 23.7819 27.6052 23.8245 27.6026C24.1406 27.5846 24.4374 27.4517 24.6606 27.2272L27.0606 24.4259C27.5161 23.8955 27.4645 23.1007 26.9497 22.631L21.7058 17.862Z" fill="white"/>
</svg>
