<svg width="18" height="12" viewBox="0 0 18 12" fill="none" xmlns="http://www.w3.org/2000/svg">
<path d="M17.9983 10.5V1.5C17.9983 0.67 17.3283 0 16.4983 0H2.48828C1.65828 0 0.988281 0.67 0.988281 1.5V10.5C0.988281 11.33 1.65828 12 2.48828 12H16.4983C17.3283 12 17.9983 11.33 17.9983 10.5ZM16.6883 1.39C17.0183 1.72 16.8383 2.06 16.6583 2.23L12.5983 5.95L16.4983 10.01C16.6183 10.15 16.6983 10.37 16.5583 10.52C16.4283 10.68 16.1283 10.67 15.9983 10.57L11.6283 6.84L9.48828 8.79L7.35828 6.84L2.98828 10.57C2.85828 10.67 2.55828 10.68 2.42828 10.52C2.28828 10.37 2.36828 10.15 2.48828 10.01L6.38828 5.95L2.32828 2.23C2.14828 2.06 1.96828 1.72 2.29828 1.39C2.62828 1.06 2.96828 1.22 3.24828 1.46L9.48828 6.5L15.7383 1.46C16.0183 1.22 16.3583 1.06 16.6883 1.39Z" fill="white"/>
</svg>
