<svg width="12" height="12" viewBox="0 0 12 12" fill="none" xmlns="http://www.w3.org/2000/svg">
<path fill-rule="evenodd" clip-rule="evenodd" d="M12 6C12 9.31371 9.31371 12 6 12C2.68629 12 0 9.31371 0 6C0 2.68629 2.68629 0 6 0C9.31371 0 12 2.68629 12 6ZM7.71271 7.95491C7.80338 8.02292 7.90919 8.05566 8.01447 8.05566C8.16812 8.05566 8.31923 7.98664 8.41803 7.85367C8.58528 7.63149 8.53995 7.31563 8.31728 7.14887L6.50367 5.78866V3.01787C6.50367 2.73978 6.27797 2.51408 5.99988 2.51408C5.72179 2.51408 5.49609 2.73978 5.49609 3.01787V6.04053C5.49609 6.19924 5.57066 6.34885 5.69761 6.44356L7.71271 7.95491Z" fill="#3C93F0"/>
</svg>
