<svg width="20" height="20" viewBox="0 0 20 20" fill="none" xmlns="http://www.w3.org/2000/svg">
<path d="M14.5668 20C14.5718 20 14.5898 20 14.5948 20C15.1228 20 15.6218 19.792 15.9998 19.414L18.712 16.7018C19.103 16.3108 19.103 15.6788 18.712 15.2878L14.7118 11.2876C14.3208 10.8965 13.6888 10.8965 13.2977 11.2876L11.7037 12.8816C10.9646 12.6616 9.58559 12.1616 8.71156 11.2876C7.83752 10.4135 7.3375 9.03445 7.11749 8.29541L8.71156 6.70134C9.10257 6.31032 9.10257 5.67828 8.71156 5.28726L4.7114 1.28706C4.33639 0.912046 3.67236 0.912046 3.29735 1.28706L0.586239 3.9992C0.206225 4.37922 -0.00778376 4.90125 0.000216553 5.43427C0.0232175 6.85834 0.400232 11.8046 4.29838 15.7028C8.19654 19.601 13.1427 19.977 14.5668 20ZM4.00537 3.40817L6.59147 5.9943L5.29842 7.28736C5.05941 7.52538 4.95741 7.86939 5.02741 8.19941C5.05141 8.31442 5.63844 11.0416 7.2985 12.7016C8.95857 14.3617 11.6857 14.9487 11.8007 14.9727C12.1337 15.0428 12.4747 14.9407 12.7127 14.7017L14.0058 13.4087L16.5919 15.9948L14.5858 17.9999C13.3377 17.9789 9.06757 17.6439 5.71244 14.2877C2.34631 10.9215 2.0203 6.63633 2.00029 5.41327L4.00537 3.40817ZM17.9999 8.99945H20C20 3.86919 16.1268 0 10.9896 0V2.0001C15.0518 2.0001 17.9999 4.94325 17.9999 8.99945Z" fill="white"/>
<path d="M11.2002 5.92C13.2191 5.92 14.0802 6.78112 14.0802 8.8H16.0002C16.0002 5.704 14.2962 4 11.2002 4V5.92Z" fill="white"/>
</svg>
