<svg width="24" height="24" viewBox="0 0 24 24" fill="none" xmlns="http://www.w3.org/2000/svg">
<path d="M13.0297 1.70464L2.03995 0.0221663C1.52996 -0.0584314 1.00998 0.0826146 0.619986 0.41508C0.229995 0.757621 0 1.25128 0 1.76509V22.9925C0 23.5466 0.44999 24 0.999977 24H4.2499V18.7108C4.2499 17.7335 5.02988 16.9477 5.99986 16.9477H8.4998C9.46978 16.9477 10.2498 17.7335 10.2498 18.7108V24H14.4997V3.44757C14.4997 2.58115 13.8797 1.84569 13.0297 1.70464ZM5.49987 14.6809H3.99991C3.58592 14.6809 3.24992 14.3424 3.24992 13.9253C3.24992 13.5082 3.58592 13.1697 3.99991 13.1697H5.49987C5.91386 13.1697 6.24986 13.5082 6.24986 13.9253C6.24986 14.3424 5.91386 14.6809 5.49987 14.6809ZM5.49987 11.6585H3.99991C3.58592 11.6585 3.24992 11.32 3.24992 10.9029C3.24992 10.4858 3.58592 10.1473 3.99991 10.1473H5.49987C5.91386 10.1473 6.24986 10.4858 6.24986 10.9029C6.24986 11.32 5.91386 11.6585 5.49987 11.6585ZM5.49987 8.63605H3.99991C3.58592 8.63605 3.24992 8.29754 3.24992 7.88045C3.24992 7.46335 3.58592 7.12484 3.99991 7.12484H5.49987C5.91386 7.12484 6.24986 7.46335 6.24986 7.88045C6.24986 8.29754 5.91386 8.63605 5.49987 8.63605ZM5.49987 5.61364H3.99991C3.58592 5.61364 3.24992 5.27513 3.24992 4.85803C3.24992 4.44094 3.58592 4.10243 3.99991 4.10243H5.49987C5.91386 4.10243 6.24986 4.44094 6.24986 4.85803C6.24986 5.27513 5.91386 5.61364 5.49987 5.61364ZM10.4998 14.6809H8.99979C8.5858 14.6809 8.24981 14.3424 8.24981 13.9253C8.24981 13.5082 8.5858 13.1697 8.99979 13.1697H10.4998C10.9137 13.1697 11.2497 13.5082 11.2497 13.9253C11.2497 14.3424 10.9137 14.6809 10.4998 14.6809ZM10.4998 11.6585H8.99979C8.5858 11.6585 8.24981 11.32 8.24981 10.9029C8.24981 10.4858 8.5858 10.1473 8.99979 10.1473H10.4998C10.9137 10.1473 11.2497 10.4858 11.2497 10.9029C11.2497 11.32 10.9137 11.6585 10.4998 11.6585ZM10.4998 8.63605H8.99979C8.5858 8.63605 8.24981 8.29754 8.24981 7.88045C8.24981 7.46335 8.5858 7.12484 8.99979 7.12484H10.4998C10.9137 7.12484 11.2497 7.46335 11.2497 7.88045C11.2497 8.29754 10.9137 8.63605 10.4998 8.63605ZM10.4998 5.61364H8.99979C8.5858 5.61364 8.24981 5.27513 8.24981 4.85803C8.24981 4.44094 8.5858 4.10243 8.99979 4.10243H10.4998C10.9137 4.10243 11.2497 4.44094 11.2497 4.85803C11.2497 5.27513 10.9137 5.61364 10.4998 5.61364Z" fill="#3E3E3E"/>
<path d="M22.6198 10.7436L15.5 9.24146V23.9999H22.2498C23.2148 23.9999 23.9998 23.209 23.9998 22.2368V12.4664C23.9998 11.6342 23.4368 10.9259 22.6198 10.7436ZM20.2499 20.9775H18.7499C18.3359 20.9775 17.9999 20.639 17.9999 20.2219C17.9999 19.8048 18.3359 19.4663 18.7499 19.4663H20.2499C20.6639 19.4663 20.9999 19.8048 20.9999 20.2219C20.9999 20.639 20.6639 20.9775 20.2499 20.9775ZM20.2499 17.9551H18.7499C18.3359 17.9551 17.9999 17.6166 17.9999 17.1995C17.9999 16.7824 18.3359 16.4439 18.7499 16.4439H20.2499C20.6639 16.4439 20.9999 16.7824 20.9999 17.1995C20.9999 17.6166 20.6639 17.9551 20.2499 17.9551ZM20.2499 14.9327H18.7499C18.3359 14.9327 17.9999 14.5942 17.9999 14.1771C17.9999 13.76 18.3359 13.4215 18.7499 13.4215H20.2499C20.6639 13.4215 20.9999 13.76 20.9999 14.1771C20.9999 14.5942 20.6639 14.9327 20.2499 14.9327Z" fill="#3E3E3E"/>
</svg>
