<svg width="60" height="25" viewBox="0 0 60 25" fill="none" xmlns="http://www.w3.org/2000/svg">
<rect width="60" height="25" rx="3" fill="#FED036"/>
<path d="M13.508 19.216C11.528 19.216 9.986 18.616 8.882 17.416L10.304 15.634C11.144 16.51 12.206 16.948 13.49 16.948C14.174 16.948 14.714 16.78 15.11 16.444C15.518 16.096 15.722 15.67 15.722 15.166C15.722 14.626 15.53 14.194 15.146 13.87C14.762 13.546 14.234 13.384 13.562 13.384C12.566 13.384 11.726 13.708 11.042 14.356L9.26 13.888V6.994H17.504V9.244H11.816V12.178C12.488 11.506 13.37 11.17 14.462 11.17C15.53 11.17 16.436 11.524 17.18 12.232C17.936 12.94 18.314 13.882 18.314 15.058C18.314 16.33 17.876 17.344 17 18.1C16.124 18.844 14.96 19.216 13.508 19.216ZM22.2812 18.766C21.9932 19.054 21.6512 19.198 21.2552 19.198C20.8592 19.198 20.5172 19.054 20.2292 18.766C19.9412 18.478 19.7972 18.136 19.7972 17.74C19.7972 17.344 19.9412 17.002 20.2292 16.714C20.5172 16.426 20.8592 16.282 21.2552 16.282C21.6512 16.282 21.9932 16.426 22.2812 16.714C22.5692 17.002 22.7132 17.344 22.7132 17.74C22.7132 18.136 22.5692 18.478 22.2812 18.766ZM31.5399 18.298C30.7719 18.91 29.8419 19.216 28.7499 19.216C27.6579 19.216 26.7219 18.91 25.9419 18.298C25.1739 17.674 24.6219 16.906 24.2859 15.994C23.9499 15.082 23.7819 14.086 23.7819 13.006C23.7819 11.926 23.9499 10.93 24.2859 10.018C24.6219 9.106 25.1739 8.344 25.9419 7.732C26.7219 7.12 27.6579 6.814 28.7499 6.814C29.8419 6.814 30.7719 7.12 31.5399 7.732C32.3079 8.344 32.8599 9.106 33.1959 10.018C33.5439 10.93 33.7179 11.926 33.7179 13.006C33.7179 14.086 33.5439 15.082 33.1959 15.994C32.8599 16.906 32.3079 17.674 31.5399 18.298ZM26.9499 15.868C27.3339 16.588 27.9339 16.948 28.7499 16.948C29.5659 16.948 30.1599 16.588 30.5319 15.868C30.9159 15.148 31.1079 14.194 31.1079 13.006C31.1079 11.818 30.9159 10.87 30.5319 10.162C30.1599 9.442 29.5659 9.082 28.7499 9.082C27.9339 9.082 27.3339 9.442 26.9499 10.162C26.5659 10.87 26.3739 11.818 26.3739 13.006C26.3739 14.194 26.5659 15.148 26.9499 15.868Z" fill="#3E3E3E"/>
<path d="M52.7169 10.7369C52.6363 10.5006 52.4231 10.3338 52.1744 10.3144L48.6113 10.0313L47.0694 6.61813C46.9688 6.39375 46.7456 6.25 46.5 6.25C46.2544 6.25 46.0313 6.39375 45.9306 6.6175L44.3888 10.0313L40.8256 10.3144C40.5813 10.3338 40.3706 10.4944 40.2875 10.725C40.2044 10.9556 40.2631 11.2138 40.4388 11.385L43.0719 13.9519L42.1406 17.9844C42.0831 18.2338 42.1838 18.4931 42.3944 18.6388C42.5019 18.7125 42.6256 18.75 42.75 18.75C42.8706 18.75 42.9919 18.715 43.0969 18.645L46.5 16.3763L49.9031 18.645C50.1206 18.79 50.4063 18.7844 50.6188 18.63C50.83 18.4756 50.9231 18.205 50.8513 17.9538L49.7081 13.9538L52.5431 11.4025C52.7288 11.235 52.7969 10.9738 52.7169 10.7369Z" fill="#3E3E3E"/>
</svg>
