<svg width="280" height="72" viewBox="0 0 280 72" fill="none" xmlns="http://www.w3.org/2000/svg">
<rect x="0.5" y="0.5" width="279" height="71" rx="2.5" stroke="#EDF3F6"/>
<path fill-rule="evenodd" clip-rule="evenodd" d="M20 0H60V50V60L40 50L20 60V50V0Z" fill="#FED036"/>
<path d="M38.6194 31.806V33.732H37.1794V36H35.0914V33.732H28.8994V31.806L33.2374 23.4H35.4874L31.1494 31.806H35.0914V28.53H37.1794V31.806H38.6194ZM42.7608 33.84L41.5008 38.52H39.8808L40.6008 33.84H42.7608ZM43.9604 23.4H51.9704V25.2L47.5424 36H45.3644L49.7204 25.38H43.9604V23.4Z" fill="black"/>
<path d="M86 10L87.3471 14.1459H91.7063L88.1796 16.7082L89.5267 20.8541L86 18.2918L82.4733 20.8541L83.8204 16.7082L80.2937 14.1459H84.6529L86 10Z" fill="#FED036"/>
<path d="M100 10L101.347 14.1459H105.706L102.18 16.7082L103.527 20.8541L100 18.2918L96.4733 20.8541L97.8204 16.7082L94.2937 14.1459H98.6529L100 10Z" fill="#FED036"/>
<path d="M114 10L115.347 14.1459H119.706L116.18 16.7082L117.527 20.8541L114 18.2918L110.473 20.8541L111.82 16.7082L108.294 14.1459H112.653L114 10Z" fill="#FED036"/>
<path d="M128 10L129.347 14.1459H133.706L130.18 16.7082L131.527 20.8541L128 18.2918L124.473 20.8541L125.82 16.7082L122.294 14.1459H126.653L128 10Z" fill="#FED036"/>
<path d="M138.474 20.8541L142 18.2918V10L140.653 14.1459H136.294L139.821 16.7082L138.474 20.8541Z" fill="#FED036"/>
<path d="M145.524 20.8541L141.998 18.2918V10L143.345 14.1459H147.704L144.177 16.7082L145.524 20.8541Z" fill="#EDF3F6"/>
<path d="M82.496 43H80.792V34.996H84.536C85.376 34.996 86.032 35.244 86.504 35.74C86.984 36.228 87.224 36.84 87.224 37.576C87.224 38.304 86.984 38.916 86.504 39.412C86.024 39.908 85.368 40.156 84.536 40.156H82.496V43ZM84.308 38.656C84.652 38.656 84.932 38.56 85.148 38.368C85.372 38.168 85.484 37.904 85.484 37.576C85.484 37.248 85.372 36.988 85.148 36.796C84.932 36.596 84.652 36.496 84.308 36.496H82.496V38.656H84.308ZM90.7691 43.144C89.8731 43.144 89.1331 42.864 88.5491 42.304C87.9651 41.744 87.6731 41.008 87.6731 40.096C87.6731 39.24 87.9531 38.52 88.5131 37.936C89.0811 37.352 89.8011 37.06 90.6731 37.06C91.5371 37.06 92.2371 37.356 92.7731 37.948C93.3091 38.532 93.5771 39.3 93.5771 40.252V40.588H89.2691C89.3171 40.972 89.4891 41.292 89.7851 41.548C90.0811 41.804 90.4651 41.932 90.9371 41.932C91.1931 41.932 91.4691 41.88 91.7651 41.776C92.0691 41.672 92.3091 41.532 92.4851 41.356L93.1571 42.34C92.5731 42.876 91.7771 43.144 90.7691 43.144ZM92.1011 39.556C92.0771 39.228 91.9451 38.932 91.7051 38.668C91.4731 38.404 91.1291 38.272 90.6731 38.272C90.2411 38.272 89.9051 38.404 89.6651 38.668C89.4251 38.924 89.2851 39.22 89.2451 39.556H92.1011ZM96.1419 43H94.6779V37.204H96.2019V40.708L98.5899 37.204H100.126V43H98.6019V39.364L96.1419 43ZM99.5019 35.572C98.9819 36.276 98.2819 36.628 97.4019 36.628C96.5299 36.628 95.8259 36.276 95.2899 35.572L95.9619 35.008C96.3139 35.504 96.7939 35.752 97.4019 35.752C97.9939 35.752 98.4699 35.504 98.8299 35.008L99.5019 35.572ZM104.243 43H102.707V38.536H101.087V37.204H105.863V38.536H104.243V43ZM108.283 43H106.819V37.204H108.343V40.708L110.731 37.204H112.267V43H110.743V39.364L108.283 43ZM115.303 43H113.779V37.204H115.303V39.352H117.703V37.204H119.227V43H117.703V40.684H115.303V43ZM125.216 37.204V38.536H122.264V43H120.74V37.204H125.216ZM85.724 58H84.824V52.996H81.8V58H80.9V52.204H85.724V58ZM92.1291 57.268C91.6091 57.852 90.9171 58.144 90.0531 58.144C89.1891 58.144 88.4931 57.852 87.9651 57.268C87.4451 56.684 87.1851 55.96 87.1851 55.096C87.1851 54.232 87.4451 53.512 87.9651 52.936C88.4931 52.352 89.1891 52.06 90.0531 52.06C90.9171 52.06 91.6091 52.352 92.1291 52.936C92.6571 53.512 92.9211 54.232 92.9211 55.096C92.9211 55.96 92.6571 56.684 92.1291 57.268ZM88.6371 56.692C88.9891 57.124 89.4611 57.34 90.0531 57.34C90.6451 57.34 91.1131 57.124 91.4571 56.692C91.8011 56.252 91.9731 55.72 91.9731 55.096C91.9731 54.472 91.8011 53.944 91.4571 53.512C91.1131 53.08 90.6451 52.864 90.0531 52.864C89.4611 52.864 88.9891 53.084 88.6371 53.524C88.2931 53.956 88.1211 54.48 88.1211 55.096C88.1211 55.72 88.2931 56.252 88.6371 56.692ZM102.09 57.268C101.57 57.852 100.878 58.144 100.014 58.144C99.15 58.144 98.454 57.852 97.926 57.268C97.406 56.684 97.146 55.96 97.146 55.096C97.146 54.232 97.406 53.512 97.926 52.936C98.454 52.352 99.15 52.06 100.014 52.06C100.878 52.06 101.57 52.352 102.09 52.936C102.618 53.512 102.882 54.232 102.882 55.096C102.882 55.96 102.618 56.684 102.09 57.268ZM98.598 56.692C98.95 57.124 99.422 57.34 100.014 57.34C100.606 57.34 101.074 57.124 101.418 56.692C101.762 56.252 101.934 55.72 101.934 55.096C101.934 54.472 101.762 53.944 101.418 53.512C101.074 53.08 100.606 52.864 100.014 52.864C99.422 52.864 98.95 53.084 98.598 53.524C98.254 53.956 98.082 54.48 98.082 55.096C98.082 55.72 98.254 56.252 98.598 56.692ZM106.305 58H105.405V52.996H103.725V52.204H107.997V52.996H106.305V58ZM111.229 58.144C110.117 58.144 109.245 57.828 108.613 57.196L109.057 56.62C109.601 57.14 110.325 57.4 111.229 57.4C111.749 57.4 112.161 57.308 112.465 57.124C112.777 56.94 112.933 56.696 112.933 56.392C112.933 55.752 112.325 55.432 111.109 55.432H109.813V54.7H111.109C111.613 54.7 112.025 54.62 112.345 54.46C112.665 54.292 112.825 54.048 112.825 53.728C112.825 53.456 112.665 53.236 112.345 53.068C112.025 52.892 111.621 52.804 111.133 52.804C110.325 52.804 109.677 53.052 109.189 53.548L108.721 52.996C109.321 52.38 110.113 52.072 111.097 52.072C111.889 52.064 112.529 52.2 113.017 52.48C113.513 52.752 113.761 53.132 113.761 53.62C113.761 54.02 113.597 54.344 113.269 54.592C112.949 54.84 112.593 54.988 112.201 55.036C112.609 55.068 112.989 55.204 113.341 55.444C113.701 55.684 113.881 56.02 113.881 56.452C113.881 56.948 113.641 57.356 113.161 57.676C112.689 57.988 112.045 58.144 111.229 58.144ZM115.341 52.204H116.241V54.448H118.413C118.989 54.448 119.437 54.62 119.757 54.964C120.077 55.3 120.237 55.72 120.237 56.224C120.237 56.728 120.073 57.152 119.745 57.496C119.425 57.832 118.981 58 118.413 58H115.341V52.204ZM118.317 55.24H116.241V57.208H118.317C118.637 57.208 118.881 57.12 119.049 56.944C119.225 56.76 119.313 56.52 119.313 56.224C119.313 55.928 119.225 55.692 119.049 55.516C118.881 55.332 118.637 55.24 118.317 55.24ZM122.085 58H121.185V52.204H122.085V58ZM127.136 58H123.884V52.204H127.076C127.58 52.204 127.976 52.34 128.264 52.612C128.56 52.884 128.708 53.244 128.708 53.692C128.708 54.02 128.616 54.304 128.432 54.544C128.256 54.776 128.036 54.932 127.772 55.012C128.068 55.084 128.316 55.256 128.516 55.528C128.724 55.8 128.828 56.1 128.828 56.428C128.828 56.9 128.676 57.28 128.372 57.568C128.076 57.856 127.664 58 127.136 58ZM126.956 57.208C127.244 57.208 127.472 57.128 127.64 56.968C127.808 56.808 127.892 56.592 127.892 56.32C127.892 56.072 127.808 55.86 127.64 55.684C127.472 55.508 127.244 55.42 126.956 55.42H124.784V57.208H126.956ZM126.92 54.628C127.192 54.628 127.404 54.556 127.556 54.412C127.708 54.26 127.784 54.064 127.784 53.824C127.784 53.568 127.708 53.368 127.556 53.224C127.404 53.072 127.192 52.996 126.92 52.996H124.784V54.628H126.92ZM135.053 58H134.153V57.34C133.665 57.876 133.025 58.144 132.233 58.144C131.697 58.144 131.225 57.972 130.817 57.628C130.409 57.284 130.205 56.816 130.205 56.224C130.205 55.616 130.405 55.148 130.805 54.82C131.213 54.484 131.689 54.316 132.233 54.316C133.057 54.316 133.697 54.58 134.153 55.108V54.064C134.153 53.68 134.017 53.38 133.745 53.164C133.473 52.948 133.121 52.84 132.689 52.84C132.009 52.84 131.417 53.108 130.913 53.644L130.493 53.02C131.109 52.38 131.881 52.06 132.809 52.06C133.473 52.06 134.013 52.22 134.429 52.54C134.845 52.86 135.053 53.352 135.053 54.016V58ZM132.557 57.496C133.277 57.496 133.809 57.256 134.153 56.776V55.684C133.809 55.204 133.277 54.964 132.557 54.964C132.141 54.964 131.797 55.084 131.525 55.324C131.261 55.556 131.129 55.86 131.129 56.236C131.129 56.604 131.261 56.908 131.525 57.148C131.797 57.38 132.141 57.496 132.557 57.496ZM142.773 58H141.873V53.452L139.989 58H139.653L137.757 53.452V58H136.857V52.204H138.045L139.821 56.5L141.573 52.204H142.773V58ZM150.914 58H147.662V52.204H150.854C151.358 52.204 151.754 52.34 152.042 52.612C152.338 52.884 152.486 53.244 152.486 53.692C152.486 54.02 152.394 54.304 152.21 54.544C152.034 54.776 151.814 54.932 151.55 55.012C151.846 55.084 152.094 55.256 152.294 55.528C152.502 55.8 152.606 56.1 152.606 56.428C152.606 56.9 152.454 57.28 152.15 57.568C151.854 57.856 151.442 58 150.914 58ZM150.734 57.208C151.022 57.208 151.25 57.128 151.418 56.968C151.586 56.808 151.67 56.592 151.67 56.32C151.67 56.072 151.586 55.86 151.418 55.684C151.25 55.508 151.022 55.42 150.734 55.42H148.562V57.208H150.734ZM150.698 54.628C150.97 54.628 151.182 54.556 151.334 54.412C151.486 54.26 151.562 54.064 151.562 53.824C151.562 53.568 151.486 53.368 151.334 53.224C151.182 53.072 150.97 52.996 150.698 52.996H148.562V54.628H150.698Z" fill="#878787"/>
<g clip-path="url(#clip0_1407:3248)">
<path d="M256.274 35.0274C257.844 35.0274 258.955 34.7453 259.784 34.1377V31.3821C258.934 31.9679 257.909 32.3368 256.47 32.3368C254.051 32.3368 253.048 30.4708 253.048 27.5198C253.048 24.417 254.269 22.833 256.492 22.833C257.8 22.833 259.086 23.2887 259.762 23.7226V20.8585C259.043 20.4679 257.8 20.1859 256.1 20.1859C251.762 20.1859 249.517 23.2887 249.517 27.6283C249.538 32.3802 251.74 35.0274 256.274 35.0274ZM235.064 33.7689V31.0132C234.018 31.7292 232.231 32.3585 230.596 32.3585C228.111 32.3585 227.173 31.1868 227.021 28.8H235.217V27.0208C235.217 22.0519 233.015 20.1859 229.637 20.1859C225.495 20.1859 223.533 23.3321 223.533 27.65C223.533 32.6189 225.996 35.0274 230.312 35.0274C232.47 35.0274 234.062 34.4415 235.064 33.7689ZM203.958 20.4462V26.0877H199.424V20.4462H196.023V34.7453H199.424V28.7783H203.958V34.7453H207.359V20.4462H203.958ZM222.683 32.0547H221.179V20.4462H211.282V21.6613C211.282 25.1547 211.064 29.6679 209.865 32.0547H208.775V38H211.914V34.7453H219.522V38H222.661V32.0547H222.683ZM245.898 34.7453H249.756L244.307 27.0425L249.102 20.4462H245.68L240.884 27.0425V20.4462H237.484V34.7453H240.884V27.7151L245.898 34.7453ZM229.549 22.833C231.228 22.833 231.751 24.2217 231.751 26.0226V26.3047H227.021C227.108 24.0264 227.936 22.833 229.549 22.833ZM217.778 32.0547H212.983C213.92 29.9066 214.181 26.0009 214.181 23.5274V23.0934H217.778V32.0547Z" fill="#3E3E3E"/>
<path d="M193.188 34.7453H189.722V17.6689H188.174C185.341 17.6689 183.858 19.0792 183.858 21.184C183.858 23.5708 184.883 24.6774 186.997 26.0877L188.741 27.2594L183.728 34.7453H180L184.512 28.0623C181.918 26.2179 180.458 24.417 180.458 21.3792C180.458 17.5821 183.117 15 188.153 15H193.166V34.7453H193.188Z" fill="#FC3F1D"/>
</g>
<path d="M192.482 53H191.486V46.316L190.202 47.672L189.602 47.06L191.606 44.996H192.482V53ZM199.56 53H194.064V52.208C194.896 51.552 195.54 51.032 195.996 50.648C196.46 50.256 196.904 49.844 197.328 49.412C197.76 48.972 198.064 48.584 198.24 48.248C198.416 47.904 198.504 47.564 198.504 47.228C198.504 46.748 198.34 46.384 198.012 46.136C197.684 45.888 197.292 45.764 196.836 45.764C195.916 45.764 195.192 46.1 194.664 46.772L194.052 46.136C194.356 45.736 194.752 45.428 195.24 45.212C195.736 44.988 196.268 44.876 196.836 44.876C197.564 44.876 198.192 45.08 198.72 45.488C199.256 45.896 199.524 46.476 199.524 47.228C199.524 47.972 199.204 48.716 198.564 49.46C197.924 50.196 196.948 51.08 195.636 52.112H199.56V53ZM204.083 53.144C202.851 53.144 201.911 52.716 201.263 51.86L201.875 51.2C202.427 51.904 203.163 52.256 204.083 52.256C204.627 52.256 205.071 52.092 205.415 51.764C205.759 51.436 205.931 51.028 205.931 50.54C205.931 50.02 205.759 49.604 205.415 49.292C205.079 48.972 204.639 48.812 204.095 48.812C203.375 48.812 202.759 49.064 202.247 49.568L201.515 49.316V44.996H206.411V45.884H202.511V48.668C202.991 48.188 203.615 47.948 204.383 47.948C205.087 47.948 205.687 48.18 206.183 48.644C206.679 49.1 206.927 49.72 206.927 50.504C206.927 51.304 206.659 51.944 206.123 52.424C205.587 52.904 204.907 53.144 204.083 53.144ZM216.151 52.268C215.631 52.852 214.939 53.144 214.075 53.144C213.211 53.144 212.515 52.852 211.987 52.268C211.467 51.684 211.207 50.96 211.207 50.096C211.207 49.232 211.467 48.512 211.987 47.936C212.515 47.352 213.211 47.06 214.075 47.06C214.939 47.06 215.631 47.352 216.151 47.936C216.679 48.512 216.943 49.232 216.943 50.096C216.943 50.96 216.679 51.684 216.151 52.268ZM212.659 51.692C213.011 52.124 213.483 52.34 214.075 52.34C214.667 52.34 215.135 52.124 215.479 51.692C215.823 51.252 215.995 50.72 215.995 50.096C215.995 49.472 215.823 48.944 215.479 48.512C215.135 48.08 214.667 47.864 214.075 47.864C213.483 47.864 213.011 48.084 212.659 48.524C212.315 48.956 212.143 49.48 212.143 50.096C212.143 50.72 212.315 51.252 212.659 51.692ZM223.006 54.476V53H218.41V47.204H219.31V52.208H222.334V47.204H223.234V52.208H223.906V54.476H223.006ZM227.752 53.144C226.888 53.144 226.18 52.864 225.628 52.304C225.076 51.736 224.8 51 224.8 50.096C224.8 49.248 225.072 48.532 225.616 47.948C226.16 47.356 226.84 47.06 227.656 47.06C228.512 47.06 229.188 47.356 229.684 47.948C230.188 48.532 230.44 49.272 230.44 50.168V50.396H225.748C225.788 50.964 225.996 51.44 226.372 51.824C226.748 52.208 227.236 52.4 227.836 52.4C228.556 52.4 229.152 52.156 229.624 51.668L230.056 52.256C229.464 52.848 228.696 53.144 227.752 53.144ZM229.552 49.736C229.544 49.24 229.376 48.796 229.048 48.404C228.72 48.004 228.252 47.804 227.644 47.804C227.068 47.804 226.612 48 226.276 48.392C225.948 48.784 225.772 49.232 225.748 49.736H229.552ZM232.798 53H231.898V47.204H232.798V49.616H235.822V47.204H236.722V53H235.822V50.408H232.798V53ZM243.127 52.268C242.607 52.852 241.915 53.144 241.051 53.144C240.187 53.144 239.491 52.852 238.963 52.268C238.443 51.684 238.183 50.96 238.183 50.096C238.183 49.232 238.443 48.512 238.963 47.936C239.491 47.352 240.187 47.06 241.051 47.06C241.915 47.06 242.607 47.352 243.127 47.936C243.655 48.512 243.919 49.232 243.919 50.096C243.919 50.96 243.655 51.684 243.127 52.268ZM239.635 51.692C239.987 52.124 240.459 52.34 241.051 52.34C241.643 52.34 242.111 52.124 242.455 51.692C242.799 51.252 242.971 50.72 242.971 50.096C242.971 49.472 242.799 48.944 242.455 48.512C242.111 48.08 241.643 47.864 241.051 47.864C240.459 47.864 239.987 48.084 239.635 48.524C239.291 48.956 239.119 49.48 239.119 50.096C239.119 50.72 239.291 51.252 239.635 51.692ZM250.486 53H249.334L247.246 50.396L246.286 51.344V53H245.386V47.204H246.286V50.288L249.334 47.204H250.474L247.906 49.832L250.486 53Z" fill="#878787"/>
<defs>
<clipPath id="clip0_1407:3248">
<rect width="80" height="23" fill="white" transform="translate(180 15)"/>
</clipPath>
</defs>
</svg>
