<svg width="280" height="72" viewBox="0 0 280 72" fill="none" xmlns="http://www.w3.org/2000/svg">
<rect x="0.5" y="0.5" width="279" height="71" rx="2.5" stroke="#EDF3F6"/>
<path fill-rule="evenodd" clip-rule="evenodd" d="M20 0H60V50V60L40 50L20 60V50V0Z" fill="#FED036"/>
<path d="M37.6272 31.806V33.732H36.1872V36H34.0992V33.732H27.9072V31.806L32.2452 23.4H34.4952L30.1572 31.806H34.0992V28.53H36.1872V31.806H37.6272ZM41.7686 33.84L40.5086 38.52H38.8886L39.6086 33.84H41.7686ZM47.6482 28.152C48.8482 28.152 49.8622 28.512 50.6902 29.232C51.5182 29.94 51.9322 30.924 51.9322 32.184C51.9322 33.444 51.5062 34.434 50.6542 35.154C49.8022 35.874 48.7582 36.234 47.5222 36.234C46.5262 36.234 45.6442 36.006 44.8762 35.55C44.1082 35.082 43.5622 34.41 43.2382 33.534L45.0202 32.508C45.3562 33.648 46.1902 34.218 47.5222 34.218C48.2302 34.218 48.7942 34.038 49.2142 33.678C49.6462 33.306 49.8622 32.808 49.8622 32.184C49.8622 31.56 49.6522 31.068 49.2322 30.708C48.8122 30.348 48.2542 30.168 47.5582 30.168H43.8862L44.3722 23.4H51.3922V25.344H46.2802L46.0642 28.152H47.6482Z" fill="#3E3E3E"/>
<path d="M86 10L87.3471 14.1459H91.7063L88.1796 16.7082L89.5267 20.8541L86 18.2918L82.4733 20.8541L83.8204 16.7082L80.2937 14.1459H84.6529L86 10Z" fill="#FED036"/>
<path d="M100 10L101.347 14.1459H105.706L102.18 16.7082L103.527 20.8541L100 18.2918L96.4733 20.8541L97.8204 16.7082L94.2937 14.1459H98.6529L100 10Z" fill="#FED036"/>
<path d="M114 10L115.347 14.1459H119.706L116.18 16.7082L117.527 20.8541L114 18.2918L110.473 20.8541L111.82 16.7082L108.294 14.1459H112.653L114 10Z" fill="#FED036"/>
<path d="M128 10L129.347 14.1459H133.706L130.18 16.7082L131.527 20.8541L128 18.2918L124.473 20.8541L125.82 16.7082L122.294 14.1459H126.653L128 10Z" fill="#FED036"/>
<path d="M138.474 20.8541L142 18.2918V10L140.653 14.1459H136.294L139.821 16.7082L138.474 20.8541Z" fill="#FED036"/>
<path d="M145.524 20.8541L141.998 18.2918V10L143.345 14.1459H147.704L144.177 16.7082L145.524 20.8541Z" fill="#EDF3F6"/>
<path d="M82.496 43H80.792V34.996H84.536C85.376 34.996 86.032 35.244 86.504 35.74C86.984 36.228 87.224 36.84 87.224 37.576C87.224 38.304 86.984 38.916 86.504 39.412C86.024 39.908 85.368 40.156 84.536 40.156H82.496V43ZM84.308 38.656C84.652 38.656 84.932 38.56 85.148 38.368C85.372 38.168 85.484 37.904 85.484 37.576C85.484 37.248 85.372 36.988 85.148 36.796C84.932 36.596 84.652 36.496 84.308 36.496H82.496V38.656H84.308ZM90.7691 43.144C89.8731 43.144 89.1331 42.864 88.5491 42.304C87.9651 41.744 87.6731 41.008 87.6731 40.096C87.6731 39.24 87.9531 38.52 88.5131 37.936C89.0811 37.352 89.8011 37.06 90.6731 37.06C91.5371 37.06 92.2371 37.356 92.7731 37.948C93.3091 38.532 93.5771 39.3 93.5771 40.252V40.588H89.2691C89.3171 40.972 89.4891 41.292 89.7851 41.548C90.0811 41.804 90.4651 41.932 90.9371 41.932C91.1931 41.932 91.4691 41.88 91.7651 41.776C92.0691 41.672 92.3091 41.532 92.4851 41.356L93.1571 42.34C92.5731 42.876 91.7771 43.144 90.7691 43.144ZM92.1011 39.556C92.0771 39.228 91.9451 38.932 91.7051 38.668C91.4731 38.404 91.1291 38.272 90.6731 38.272C90.2411 38.272 89.9051 38.404 89.6651 38.668C89.4251 38.924 89.2851 39.22 89.2451 39.556H92.1011ZM96.1419 43H94.6779V37.204H96.2019V40.708L98.5899 37.204H100.126V43H98.6019V39.364L96.1419 43ZM99.5019 35.572C98.9819 36.276 98.2819 36.628 97.4019 36.628C96.5299 36.628 95.8259 36.276 95.2899 35.572L95.9619 35.008C96.3139 35.504 96.7939 35.752 97.4019 35.752C97.9939 35.752 98.4699 35.504 98.8299 35.008L99.5019 35.572ZM104.243 43H102.707V38.536H101.087V37.204H105.863V38.536H104.243V43ZM108.283 43H106.819V37.204H108.343V40.708L110.731 37.204H112.267V43H110.743V39.364L108.283 43ZM115.303 43H113.779V37.204H115.303V39.352H117.703V37.204H119.227V43H117.703V40.684H115.303V43ZM125.216 37.204V38.536H122.264V43H120.74V37.204H125.216ZM85.724 58H84.824V52.996H81.8V58H80.9V52.204H85.724V58ZM92.1291 57.268C91.6091 57.852 90.9171 58.144 90.0531 58.144C89.1891 58.144 88.4931 57.852 87.9651 57.268C87.4451 56.684 87.1851 55.96 87.1851 55.096C87.1851 54.232 87.4451 53.512 87.9651 52.936C88.4931 52.352 89.1891 52.06 90.0531 52.06C90.9171 52.06 91.6091 52.352 92.1291 52.936C92.6571 53.512 92.9211 54.232 92.9211 55.096C92.9211 55.96 92.6571 56.684 92.1291 57.268ZM88.6371 56.692C88.9891 57.124 89.4611 57.34 90.0531 57.34C90.6451 57.34 91.1131 57.124 91.4571 56.692C91.8011 56.252 91.9731 55.72 91.9731 55.096C91.9731 54.472 91.8011 53.944 91.4571 53.512C91.1131 53.08 90.6451 52.864 90.0531 52.864C89.4611 52.864 88.9891 53.084 88.6371 53.524C88.2931 53.956 88.1211 54.48 88.1211 55.096C88.1211 55.72 88.2931 56.252 88.6371 56.692ZM102.09 57.268C101.57 57.852 100.878 58.144 100.014 58.144C99.15 58.144 98.454 57.852 97.926 57.268C97.406 56.684 97.146 55.96 97.146 55.096C97.146 54.232 97.406 53.512 97.926 52.936C98.454 52.352 99.15 52.06 100.014 52.06C100.878 52.06 101.57 52.352 102.09 52.936C102.618 53.512 102.882 54.232 102.882 55.096C102.882 55.96 102.618 56.684 102.09 57.268ZM98.598 56.692C98.95 57.124 99.422 57.34 100.014 57.34C100.606 57.34 101.074 57.124 101.418 56.692C101.762 56.252 101.934 55.72 101.934 55.096C101.934 54.472 101.762 53.944 101.418 53.512C101.074 53.08 100.606 52.864 100.014 52.864C99.422 52.864 98.95 53.084 98.598 53.524C98.254 53.956 98.082 54.48 98.082 55.096C98.082 55.72 98.254 56.252 98.598 56.692ZM106.305 58H105.405V52.996H103.725V52.204H107.997V52.996H106.305V58ZM111.229 58.144C110.117 58.144 109.245 57.828 108.613 57.196L109.057 56.62C109.601 57.14 110.325 57.4 111.229 57.4C111.749 57.4 112.161 57.308 112.465 57.124C112.777 56.94 112.933 56.696 112.933 56.392C112.933 55.752 112.325 55.432 111.109 55.432H109.813V54.7H111.109C111.613 54.7 112.025 54.62 112.345 54.46C112.665 54.292 112.825 54.048 112.825 53.728C112.825 53.456 112.665 53.236 112.345 53.068C112.025 52.892 111.621 52.804 111.133 52.804C110.325 52.804 109.677 53.052 109.189 53.548L108.721 52.996C109.321 52.38 110.113 52.072 111.097 52.072C111.889 52.064 112.529 52.2 113.017 52.48C113.513 52.752 113.761 53.132 113.761 53.62C113.761 54.02 113.597 54.344 113.269 54.592C112.949 54.84 112.593 54.988 112.201 55.036C112.609 55.068 112.989 55.204 113.341 55.444C113.701 55.684 113.881 56.02 113.881 56.452C113.881 56.948 113.641 57.356 113.161 57.676C112.689 57.988 112.045 58.144 111.229 58.144ZM115.341 52.204H116.241V54.448H118.413C118.989 54.448 119.437 54.62 119.757 54.964C120.077 55.3 120.237 55.72 120.237 56.224C120.237 56.728 120.073 57.152 119.745 57.496C119.425 57.832 118.981 58 118.413 58H115.341V52.204ZM118.317 55.24H116.241V57.208H118.317C118.637 57.208 118.881 57.12 119.049 56.944C119.225 56.76 119.313 56.52 119.313 56.224C119.313 55.928 119.225 55.692 119.049 55.516C118.881 55.332 118.637 55.24 118.317 55.24ZM122.085 58H121.185V52.204H122.085V58ZM127.136 58H123.884V52.204H127.076C127.58 52.204 127.976 52.34 128.264 52.612C128.56 52.884 128.708 53.244 128.708 53.692C128.708 54.02 128.616 54.304 128.432 54.544C128.256 54.776 128.036 54.932 127.772 55.012C128.068 55.084 128.316 55.256 128.516 55.528C128.724 55.8 128.828 56.1 128.828 56.428C128.828 56.9 128.676 57.28 128.372 57.568C128.076 57.856 127.664 58 127.136 58ZM126.956 57.208C127.244 57.208 127.472 57.128 127.64 56.968C127.808 56.808 127.892 56.592 127.892 56.32C127.892 56.072 127.808 55.86 127.64 55.684C127.472 55.508 127.244 55.42 126.956 55.42H124.784V57.208H126.956ZM126.92 54.628C127.192 54.628 127.404 54.556 127.556 54.412C127.708 54.26 127.784 54.064 127.784 53.824C127.784 53.568 127.708 53.368 127.556 53.224C127.404 53.072 127.192 52.996 126.92 52.996H124.784V54.628H126.92ZM135.053 58H134.153V57.34C133.665 57.876 133.025 58.144 132.233 58.144C131.697 58.144 131.225 57.972 130.817 57.628C130.409 57.284 130.205 56.816 130.205 56.224C130.205 55.616 130.405 55.148 130.805 54.82C131.213 54.484 131.689 54.316 132.233 54.316C133.057 54.316 133.697 54.58 134.153 55.108V54.064C134.153 53.68 134.017 53.38 133.745 53.164C133.473 52.948 133.121 52.84 132.689 52.84C132.009 52.84 131.417 53.108 130.913 53.644L130.493 53.02C131.109 52.38 131.881 52.06 132.809 52.06C133.473 52.06 134.013 52.22 134.429 52.54C134.845 52.86 135.053 53.352 135.053 54.016V58ZM132.557 57.496C133.277 57.496 133.809 57.256 134.153 56.776V55.684C133.809 55.204 133.277 54.964 132.557 54.964C132.141 54.964 131.797 55.084 131.525 55.324C131.261 55.556 131.129 55.86 131.129 56.236C131.129 56.604 131.261 56.908 131.525 57.148C131.797 57.38 132.141 57.496 132.557 57.496ZM142.773 58H141.873V53.452L139.989 58H139.653L137.757 53.452V58H136.857V52.204H138.045L139.821 56.5L141.573 52.204H142.773V58ZM150.914 58H147.662V52.204H150.854C151.358 52.204 151.754 52.34 152.042 52.612C152.338 52.884 152.486 53.244 152.486 53.692C152.486 54.02 152.394 54.304 152.21 54.544C152.034 54.776 151.814 54.932 151.55 55.012C151.846 55.084 152.094 55.256 152.294 55.528C152.502 55.8 152.606 56.1 152.606 56.428C152.606 56.9 152.454 57.28 152.15 57.568C151.854 57.856 151.442 58 150.914 58ZM150.734 57.208C151.022 57.208 151.25 57.128 151.418 56.968C151.586 56.808 151.67 56.592 151.67 56.32C151.67 56.072 151.586 55.86 151.418 55.684C151.25 55.508 151.022 55.42 150.734 55.42H148.562V57.208H150.734ZM150.698 54.628C150.97 54.628 151.182 54.556 151.334 54.412C151.486 54.26 151.562 54.064 151.562 53.824C151.562 53.568 151.486 53.368 151.334 53.224C151.182 53.072 150.97 52.996 150.698 52.996H148.562V54.628H150.698Z" fill="#878787"/>
<path d="M214.045 29.3334C214.045 32.9424 211.107 35.6017 207.501 35.6017C203.895 35.6017 200.957 32.9424 200.957 29.3334C200.957 25.6991 203.895 23.0652 207.501 23.0652C211.107 23.0652 214.045 25.6991 214.045 29.3334ZM211.181 29.3334C211.181 27.0782 209.478 25.5352 207.501 25.5352C205.525 25.5352 203.822 27.0782 203.822 29.3334C203.822 31.5661 205.525 33.1317 207.501 33.1317C209.478 33.1317 211.181 31.5632 211.181 29.3334Z" fill="#EA4335"/>
<path d="M228.162 29.3334C228.162 32.9424 225.224 35.6017 221.618 35.6017C218.012 35.6017 215.074 32.9424 215.074 29.3334C215.074 25.7019 218.012 23.0652 221.618 23.0652C225.224 23.0652 228.162 25.6991 228.162 29.3334ZM225.297 29.3334C225.297 27.0782 223.594 25.5352 221.618 25.5352C219.641 25.5352 217.938 27.0782 217.938 29.3334C217.938 31.5661 219.641 33.1317 221.618 33.1317C223.594 33.1317 225.297 31.5632 225.297 29.3334Z" fill="#FBBC05"/>
<path d="M241.689 23.4439V34.6974C241.689 39.3265 238.848 41.2171 235.489 41.2171C232.328 41.2171 230.425 39.1852 229.707 37.5234L232.201 36.5258C232.645 37.5461 233.734 38.75 235.487 38.75C237.637 38.75 238.969 37.4754 238.969 35.0761V34.1745H238.869C238.228 34.9347 236.992 35.5989 235.434 35.5989C232.172 35.5989 229.184 32.8689 229.184 29.3561C229.184 25.8178 232.172 23.0652 235.434 23.0652C236.989 23.0652 238.225 23.7293 238.869 24.4669H238.969V23.4467H241.689V23.4439ZM239.172 29.3561C239.172 27.1489 237.639 25.5352 235.689 25.5352C233.713 25.5352 232.057 27.1489 232.057 29.3561C232.057 31.5406 233.713 33.1317 235.689 33.1317C237.639 33.1317 239.172 31.5406 239.172 29.3561Z" fill="#4285F4"/>
<path d="M246.176 16.8478V35.2174H243.382V16.8478H246.176Z" fill="#34A853"/>
<path d="M257.065 31.3965L259.288 32.8209C258.571 33.8411 256.841 35.5989 253.853 35.5989C250.147 35.5989 247.38 32.8463 247.38 29.3306C247.38 25.603 250.171 23.0624 253.532 23.0624C256.918 23.0624 258.574 25.6511 259.115 27.05L259.412 27.7622L250.691 31.2326C251.359 32.4902 252.397 33.1317 253.853 33.1317C255.312 33.1317 256.324 32.4422 257.065 31.3965ZM250.221 29.1413L256.05 26.8154C255.73 26.0326 254.765 25.4872 253.63 25.4872C252.174 25.4872 250.147 26.7222 250.221 29.1413V29.1413Z" fill="#EA4335"/>
<path d="M190.379 27.7029V25.0435H199.706C199.797 25.507 199.844 26.0553 199.844 26.6487C199.844 28.644 199.277 31.1111 197.447 32.869C195.668 34.6494 193.394 35.599 190.382 35.599C184.8 35.599 180.106 31.2298 180.106 25.8659C180.106 20.502 184.8 16.1329 190.382 16.1329C193.471 16.1329 195.671 17.2972 197.324 18.8148L195.371 20.6914C194.185 19.6231 192.579 18.7922 190.379 18.7922C186.303 18.7922 183.115 21.949 183.115 25.8659C183.115 29.7829 186.303 32.9396 190.379 32.9396C193.024 32.9396 194.529 31.9194 195.494 30.9924C196.277 30.2407 196.791 29.1668 196.994 27.7L190.379 27.7029V27.7029Z" fill="#4285F4"/>
<path d="M191.223 53.144C190.583 53.144 190.015 53.02 189.519 52.772C189.023 52.524 188.643 52.208 188.379 51.824L188.967 51.2C189.207 51.52 189.523 51.776 189.915 51.968C190.307 52.16 190.735 52.256 191.199 52.256C191.783 52.256 192.239 52.124 192.567 51.86C192.903 51.588 193.071 51.22 193.071 50.756C193.071 50.276 192.891 49.92 192.531 49.688C192.179 49.456 191.695 49.34 191.079 49.34C190.607 49.34 190.331 49.344 190.251 49.352V48.44C190.339 48.448 190.615 48.452 191.079 48.452C191.623 48.452 192.067 48.344 192.411 48.128C192.763 47.904 192.939 47.572 192.939 47.132C192.939 46.708 192.767 46.376 192.423 46.136C192.087 45.888 191.663 45.764 191.151 45.764C190.343 45.764 189.639 46.088 189.039 46.736L188.487 46.112C189.167 45.288 190.079 44.876 191.223 44.876C192.015 44.876 192.663 45.068 193.167 45.452C193.679 45.828 193.935 46.348 193.935 47.012C193.935 47.54 193.759 47.964 193.407 48.284C193.055 48.596 192.655 48.792 192.207 48.872C192.647 48.912 193.063 49.104 193.455 49.448C193.855 49.792 194.055 50.256 194.055 50.84C194.055 51.52 193.799 52.076 193.287 52.508C192.775 52.932 192.087 53.144 191.223 53.144ZM198.323 53.144C197.091 53.144 196.151 52.716 195.503 51.86L196.115 51.2C196.667 51.904 197.403 52.256 198.323 52.256C198.867 52.256 199.311 52.092 199.655 51.764C199.999 51.436 200.171 51.028 200.171 50.54C200.171 50.02 199.999 49.604 199.655 49.292C199.319 48.972 198.879 48.812 198.335 48.812C197.615 48.812 196.999 49.064 196.487 49.568L195.755 49.316V44.996H200.651V45.884H196.751V48.668C197.231 48.188 197.855 47.948 198.623 47.948C199.327 47.948 199.927 48.18 200.423 48.644C200.919 49.1 201.167 49.72 201.167 50.504C201.167 51.304 200.899 51.944 200.363 52.424C199.827 52.904 199.147 53.144 198.323 53.144ZM205.401 53.144C204.169 53.144 203.229 52.716 202.581 51.86L203.193 51.2C203.745 51.904 204.481 52.256 205.401 52.256C205.945 52.256 206.389 52.092 206.733 51.764C207.077 51.436 207.249 51.028 207.249 50.54C207.249 50.02 207.077 49.604 206.733 49.292C206.397 48.972 205.957 48.812 205.413 48.812C204.693 48.812 204.077 49.064 203.565 49.568L202.833 49.316V44.996H207.729V45.884H203.829V48.668C204.309 48.188 204.933 47.948 205.701 47.948C206.405 47.948 207.005 48.18 207.501 48.644C207.997 49.1 208.245 49.72 208.245 50.504C208.245 51.304 207.977 51.944 207.441 52.424C206.905 52.904 206.225 53.144 205.401 53.144ZM217.469 52.268C216.949 52.852 216.257 53.144 215.393 53.144C214.529 53.144 213.833 52.852 213.305 52.268C212.785 51.684 212.525 50.96 212.525 50.096C212.525 49.232 212.785 48.512 213.305 47.936C213.833 47.352 214.529 47.06 215.393 47.06C216.257 47.06 216.949 47.352 217.469 47.936C217.997 48.512 218.261 49.232 218.261 50.096C218.261 50.96 217.997 51.684 217.469 52.268ZM213.977 51.692C214.329 52.124 214.801 52.34 215.393 52.34C215.985 52.34 216.453 52.124 216.797 51.692C217.141 51.252 217.313 50.72 217.313 50.096C217.313 49.472 217.141 48.944 216.797 48.512C216.453 48.08 215.985 47.864 215.393 47.864C214.801 47.864 214.329 48.084 213.977 48.524C213.633 48.956 213.461 49.48 213.461 50.096C213.461 50.72 213.633 51.252 213.977 51.692ZM224.324 54.476V53H219.728V47.204H220.628V52.208H223.652V47.204H224.552V52.208H225.224V54.476H224.324ZM229.071 53.144C228.207 53.144 227.499 52.864 226.947 52.304C226.395 51.736 226.119 51 226.119 50.096C226.119 49.248 226.391 48.532 226.935 47.948C227.479 47.356 228.159 47.06 228.975 47.06C229.831 47.06 230.507 47.356 231.003 47.948C231.507 48.532 231.759 49.272 231.759 50.168V50.396H227.067C227.107 50.964 227.315 51.44 227.691 51.824C228.067 52.208 228.555 52.4 229.155 52.4C229.875 52.4 230.471 52.156 230.943 51.668L231.375 52.256C230.783 52.848 230.015 53.144 229.071 53.144ZM230.871 49.736C230.863 49.24 230.695 48.796 230.367 48.404C230.039 48.004 229.571 47.804 228.963 47.804C228.387 47.804 227.931 48 227.595 48.392C227.267 48.784 227.091 49.232 227.067 49.736H230.871ZM234.116 53H233.216V47.204H234.116V49.616H237.14V47.204H238.04V53H237.14V50.408H234.116V53ZM244.446 52.268C243.926 52.852 243.234 53.144 242.37 53.144C241.506 53.144 240.81 52.852 240.282 52.268C239.762 51.684 239.502 50.96 239.502 50.096C239.502 49.232 239.762 48.512 240.282 47.936C240.81 47.352 241.506 47.06 242.37 47.06C243.234 47.06 243.926 47.352 244.446 47.936C244.974 48.512 245.238 49.232 245.238 50.096C245.238 50.96 244.974 51.684 244.446 52.268ZM240.954 51.692C241.306 52.124 241.778 52.34 242.37 52.34C242.962 52.34 243.43 52.124 243.774 51.692C244.118 51.252 244.29 50.72 244.29 50.096C244.29 49.472 244.118 48.944 243.774 48.512C243.43 48.08 242.962 47.864 242.37 47.864C241.778 47.864 241.306 48.084 240.954 48.524C240.61 48.956 240.438 49.48 240.438 50.096C240.438 50.72 240.61 51.252 240.954 51.692ZM251.805 53H250.653L248.565 50.396L247.605 51.344V53H246.705V47.204H247.605V50.288L250.653 47.204H251.793L249.225 49.832L251.805 53Z" fill="#878787"/>
</svg>
