<svg width="21" height="22" viewBox="0 0 21 22" fill="none" xmlns="http://www.w3.org/2000/svg">
<path d="M14.8125 4.27083C15.3209 4.27083 15.8084 4.0689 16.1678 3.70945C16.5273 3.35001 16.7292 2.8625 16.7292 2.35417C16.7292 1.84583 16.5273 1.35832 16.1678 0.998879C15.8084 0.639434 15.3209 0.4375 14.8125 0.4375C14.3042 0.4375 13.8167 0.639434 13.4572 0.998879C13.0978 1.35832 12.8959 1.84583 12.8959 2.35417C12.8959 2.8625 13.0978 3.35001 13.4572 3.70945C13.8167 4.0689 14.3042 4.27083 14.8125 4.27083ZM11.3625 17.5917L12.3209 13.375L14.3334 15.2917V21.0417H16.25V13.8542L14.2375 11.9375L14.8125 9.0625C15.4691 9.81501 16.2792 10.4182 17.1884 10.8314C18.0975 11.2447 19.0847 11.4585 20.0834 11.4583V9.54167C18.3967 9.57042 16.825 8.68875 15.9625 7.24167L15.0042 5.70833C14.6592 5.13333 14.0459 4.75 13.375 4.75C13.0875 4.75 12.8959 4.84583 12.6084 4.84583L7.62502 6.95417V11.4583H9.54169V8.2L11.2667 7.52917L9.73335 15.2917L5.03752 14.3333L4.65419 16.25L11.3625 17.5917ZM2.83335 7.625C2.57919 7.625 2.33543 7.52403 2.15571 7.34431C1.97599 7.16459 1.87502 6.92083 1.87502 6.66667C1.87502 6.4125 1.97599 6.16875 2.15571 5.98902C2.33543 5.8093 2.57919 5.70833 2.83335 5.70833H5.70835V7.625H2.83335ZM3.79169 3.79167C3.53752 3.79167 3.29377 3.6907 3.11404 3.51098C2.93432 3.33125 2.83335 3.0875 2.83335 2.83333C2.83335 2.57917 2.93432 2.33541 3.11404 2.15569C3.29377 1.97597 3.53752 1.875 3.79169 1.875H8.58335V3.79167H3.79169ZM1.87502 11.4583C1.62085 11.4583 1.3771 11.3574 1.19738 11.1776C1.01765 10.9979 0.916687 10.7542 0.916687 10.5C0.916687 10.2458 1.01765 10.0021 1.19738 9.82236C1.3771 9.64263 1.62085 9.54167 1.87502 9.54167H5.70835V11.4583H1.87502Z" fill="#3E3E3E"/>
</svg>
