<svg width="20" height="20" viewBox="0 0 20 20" fill="none" xmlns="http://www.w3.org/2000/svg">
<path fill-rule="evenodd" clip-rule="evenodd" d="M17.086 2.90682C15.2058 1.03334 12.7055 0.001104 10.0422 0C4.55352 0 0.0854133 4.44579 0.0831947 9.91058C0.0831947 11.6571 0.54132 13.3617 1.41209 14.8653L0 20L5.27898 18.6211C6.73433 19.4105 8.3716 19.8267 10.0377 19.8278H10.0422C15.5297 19.8278 19.9978 15.382 20 9.9172C20 7.26982 18.9662 4.7803 17.086 2.90682ZM10.0422 18.1552H10.0388C8.55352 18.1541 7.09706 17.7578 5.82585 17.006L5.52413 16.8271L2.39157 17.6452L3.22684 14.6059L3.0305 14.2945C2.20189 12.983 1.76484 11.4672 1.76484 9.91058C1.76706 5.36874 5.47976 1.67366 10.0455 1.67366C12.2562 1.67476 14.3339 2.53257 15.8968 4.0892C17.4587 5.64694 18.3195 7.71583 18.3184 9.9172C18.3161 14.459 14.6034 18.1552 10.0422 18.1552ZM14.5824 11.985C14.3328 11.8602 13.1104 11.2619 12.8819 11.1791C12.6545 11.0963 12.4892 11.0554 12.3228 11.3027C12.1564 11.55 11.6794 12.1075 11.5341 12.2731C11.3888 12.4387 11.2435 12.4586 10.995 12.335C10.7465 12.2113 9.94454 11.9497 8.9939 11.1062C8.25402 10.4493 7.75485 9.63899 7.60954 9.39059C7.46423 9.14219 7.59401 9.00861 7.71936 8.88496C7.83139 8.77456 7.96783 8.59572 8.09207 8.45109C8.21631 8.30647 8.25735 8.2038 8.34054 8.0382C8.42374 7.8726 8.3827 7.72797 8.31947 7.60433C8.25735 7.47958 7.75929 6.26076 7.55186 5.76507C7.35108 5.28483 7.14587 5.34886 6.99279 5.34224C6.84859 5.33562 6.6822 5.33341 6.51692 5.33341C6.35053 5.33341 6.08098 5.39523 5.85247 5.64253C5.62396 5.89093 4.9817 6.48929 4.9817 7.7081C4.9817 8.92692 5.87354 10.1049 5.99778 10.2705C6.12202 10.4361 7.75264 12.9366 10.2485 14.0097C10.843 14.2647 11.3067 14.4171 11.6672 14.5319C12.2629 14.7207 12.8053 14.6931 13.2346 14.6302C13.7127 14.5595 14.7066 14.0318 14.914 13.4533C15.1215 12.8748 15.1215 12.3791 15.0593 12.2753C14.9972 12.1716 14.8297 12.1086 14.5824 11.985Z" fill="white"/>
</svg>
